<?xml version="1.0" standalone="no"?>
<!DOCTYPE svg PUBLIC "-//W3C//DTD SVG 20010904//EN"
 "http://www.w3.org/TR/2001/REC-SVG-20010904/DTD/svg10.dtd">
<svg version="1.0" xmlns="http://www.w3.org/2000/svg"
 width="512.000000pt" height="512.000000pt" viewBox="0 0 512.000000 512.000000"
 preserveAspectRatio="xMidYMid meet">

<g transform="translate(0.000000,512.000000) scale(0.100000,-0.100000)"
fill="#000000" stroke="none">
<path d="M3816 4594 c-9 -8 -16 -22 -16 -30 0 -7 45 -128 100 -267 55 -139
100 -259 100 -265 0 -8 -18 -12 -47 -12 -51 0 -242 -21 -358 -40 -491 -78
-947 -293 -1278 -602 l-67 -63 51 -65 c28 -36 128 -169 222 -297 93 -128 182
-247 197 -265 l27 -32 75 75 c259 262 603 414 1036 460 60 6 116 9 124 8 13
-3 -4 -54 -83 -254 -54 -137 -99 -258 -99 -267 0 -10 11 -25 25 -34 23 -15 27
-15 53 2 45 29 1195 914 1222 940 20 19 22 28 15 48 -12 30 -1239 976 -1266
976 -10 0 -25 -7 -33 -16z"/>
<path d="M0 3783 l0 -410 168 -6 c517 -20 882 -160 1177 -452 118 -116 204
-222 410 -505 228 -314 325 -432 484 -590 252 -251 502 -415 811 -533 246 -95
567 -164 848 -183 60 -4 102 -11 102 -17 0 -6 -45 -125 -100 -264 -55 -139
-100 -260 -100 -267 0 -20 28 -46 49 -46 28 0 1254 946 1266 976 8 23 5 30
-20 53 -38 33 -1180 911 -1217 935 -26 17 -30 17 -53 2 -14 -9 -25 -24 -25
-34 0 -9 45 -129 99 -267 l99 -250 -36 -3 c-57 -5 -275 27 -406 60 -269 67
-456 163 -660 336 -130 112 -237 239 -491 587 -238 327 -299 401 -469 571
-326 326 -647 507 -1096 619 -225 55 -415 81 -677 92 l-163 6 0 -410z"/>
<path d="M1461 2329 c-325 -383 -709 -554 -1293 -576 l-168 -6 0 -410 0 -410
168 6 c624 24 1121 185 1532 495 81 62 370 339 370 355 0 6 -26 40 -58 76
-109 125 -149 177 -296 376 -81 110 -150 201 -154 202 -4 2 -49 -47 -101 -108z"/>
</g>
</svg>
